<svg width="216" height="40" viewBox="0 0 216 40" fill="none" xmlns="http://www.w3.org/2000/svg">
<path fill-rule="evenodd" clip-rule="evenodd" d="M12.7245 23.1135V18.7769L0.0240539 23.2327H0V27.6829H0.0240539L12.7245 32.1388V27.7964L6.21193 25.4465L12.7245 23.1078V23.1135Z" fill="white"/>
<path fill-rule="evenodd" clip-rule="evenodd" d="M86.2875 31.9232V27.5866L92.7941 25.2536L86.2875 22.9207V18.584L98.9699 23.0399H99V27.4957H98.9699L86.2875 31.9289V31.9232ZM80.8393 12.448L73.3826 35.0451H77.8085L85.2652 12.448H80.8393Z" fill="white"/>
<path d="M119.135 39.9958C114.854 39.9958 110.357 39.1846 106.832 37.2311V2.76468C110.302 0.866396 114.799 6.34551e-05 119.135 6.34551e-05C123.471 6.34551e-05 127.862 0.811189 131.328 2.76468V15.989H122.601V6.99018C121.573 6.55701 120.324 6.39564 119.08 6.39564C117.836 6.39564 116.693 6.55701 115.61 6.99018V33.0056C116.638 33.4388 117.831 33.6002 119.08 33.6002C120.328 33.6002 121.518 33.4388 122.601 33.0056V24.0111H131.328V37.2354C127.913 39.1337 123.416 39.9448 119.135 40V39.9958Z" fill="white"/>
<path d="M147.695 39.9957C143.087 39.9957 138.645 39.0189 135.12 37.0145V2.926C138.59 0.976747 143.036 0 147.695 0C152.353 0 156.689 0.92154 160.159 2.926V37.0145C156.744 39.0189 152.247 39.9405 147.695 39.9957ZM151.436 7.10053C150.408 6.66736 149.16 6.45078 147.644 6.45078C146.128 6.45078 144.934 6.66736 143.902 7.10053V32.8442C144.93 33.3326 146.179 33.5492 147.644 33.5492C149.109 33.5492 150.353 33.3326 151.436 32.8442V7.10053Z" fill="white"/>
<path d="M175.387 25.3615H173.056V39.5073H164.223V0.488399H175.387C180.7 0.488399 184.709 1.57131 187.852 3.79235V22.0575C184.764 24.2276 180.696 25.3615 175.387 25.3615ZM179.074 7.20672C178.262 6.61218 177.175 6.34039 175.332 6.34039H172.945V19.5095H175.332C177.12 19.5095 178.203 19.2377 179.074 18.6984V7.20672Z" fill="white"/>
<path d="M206.329 39.5073V25.3615H199.827V39.5073H191.049V2.87079C194.247 0.972501 198.744 0 203.08 0C207.416 0 211.858 0.976748 215.056 2.87079V39.5073H206.329ZM206.329 6.77353C205.407 6.34037 204.269 6.12378 203.076 6.12378C201.883 6.12378 200.745 6.34037 199.823 6.77353V19.1825H206.325V6.77353H206.329Z" fill="white"/>
<path d="M25.425 14.9478C25.375 15.4811 25.3333 16.0311 25.3 16.5978C25.2833 17.1478 25.2667 17.7644 25.25 18.4478C25.25 19.1144 25.2417 19.8644 25.225 20.6978C25.225 21.5311 25.225 22.4811 25.225 23.5478C25.225 24.5478 25.225 25.4561 25.225 26.2728C25.225 27.0728 25.225 27.8228 25.225 28.5228C25.2417 29.2228 25.25 29.8894 25.25 30.5228C25.2667 31.1561 25.2833 31.7978 25.3 32.4478H21.775C21.7917 31.6478 21.8083 30.9478 21.825 30.3478C21.8583 29.7311 21.8833 29.0978 21.9 28.4478C21.9167 27.7811 21.9333 27.0228 21.95 26.1728C21.9667 25.3228 21.975 24.2561 21.975 22.9728C21.975 21.6894 21.9667 20.4144 21.95 19.1478C21.9333 17.8644 21.9 16.5478 21.85 15.1978L25.425 14.9478ZM40.6777 17.3978H35.7277C35.6944 18.1811 35.6777 19.0644 35.6777 20.0478C35.6777 21.0144 35.6777 22.1811 35.6777 23.5478C35.6777 24.5478 35.6777 25.4561 35.6777 26.2728C35.6777 27.0728 35.6777 27.8228 35.6777 28.5228C35.6944 29.2228 35.7027 29.8894 35.7027 30.5228C35.7194 31.1561 35.7361 31.7978 35.7527 32.4478H32.2277C32.2444 31.6478 32.2611 30.9478 32.2777 30.3478C32.3111 29.7311 32.3361 29.0978 32.3527 28.4478C32.3694 27.7811 32.3861 27.0228 32.4027 26.1728C32.4194 25.3228 32.4277 24.2561 32.4277 22.9728C32.4277 22.0394 32.4277 21.1144 32.4277 20.1978C32.4277 19.2811 32.4111 18.3478 32.3777 17.3978H27.4277V14.9478H40.6777V17.3978ZM45.9479 26.3228C45.9479 27.0394 46.0395 27.6561 46.2229 28.1728C46.4229 28.6728 46.6812 29.0894 46.9979 29.4228C47.3312 29.7394 47.7062 29.9728 48.1229 30.1228C48.5395 30.2728 48.9645 30.3478 49.3979 30.3478C49.7645 30.3478 50.1395 30.2728 50.5229 30.1228C50.9229 29.9728 51.2895 29.7394 51.6229 29.4228C51.9562 29.0894 52.2312 28.6728 52.4479 28.1728C52.6645 27.6728 52.7812 27.0728 52.7979 26.3728C52.8145 25.8728 52.8229 25.3228 52.8229 24.7228C52.8395 24.1228 52.8479 23.3478 52.8479 22.3978C52.8479 21.1978 52.8395 20.0144 52.8229 18.8478C52.8062 17.6644 52.7729 16.4478 52.7229 15.1978L56.2979 14.9478C56.2479 15.4478 56.2062 15.9644 56.1729 16.4978C56.1562 17.0144 56.1395 17.5894 56.1229 18.2228C56.1229 18.8394 56.1145 19.5394 56.0979 20.3228C56.0979 21.0894 56.0979 21.9728 56.0979 22.9728V26.2228C56.0979 27.2561 55.9062 28.1811 55.5229 28.9978C55.1562 29.7978 54.6562 30.4811 54.0229 31.0478C53.4062 31.5978 52.6812 32.0228 51.8479 32.3228C51.0145 32.6061 50.1395 32.7478 49.2229 32.7478C48.3062 32.7478 47.4479 32.5978 46.6479 32.2978C45.8479 31.9978 45.1479 31.5728 44.5479 31.0228C43.9645 30.4561 43.4979 29.7728 43.1479 28.9728C42.8145 28.1561 42.6479 27.2394 42.6479 26.2228C42.6479 25.7394 42.6562 25.1978 42.6729 24.5978C42.6895 23.9811 42.6979 23.2478 42.6979 22.3978C42.6979 21.1978 42.6895 20.0144 42.6729 18.8478C42.6562 17.6644 42.6229 16.4478 42.5729 15.1978L46.1479 14.9478C46.0979 15.4478 46.0562 15.9644 46.0229 16.4978C46.0062 17.0144 45.9895 17.5894 45.9729 18.2228C45.9562 18.8394 45.9479 19.5394 45.9479 20.3228C45.9479 21.0894 45.9479 21.9728 45.9479 22.9728V26.3228ZM64.6412 29.8978C65.6912 29.8978 66.4662 29.7144 66.9662 29.3478C67.4829 28.9811 67.7412 28.4478 67.7412 27.7478C67.7412 27.3144 67.6495 26.9478 67.4662 26.6478C67.2829 26.3478 67.0329 26.0894 66.7162 25.8728C66.4162 25.6561 66.0579 25.4728 65.6412 25.3228C65.2412 25.1561 64.8245 24.9978 64.3912 24.8478C63.5912 24.5811 62.8662 24.3144 62.2162 24.0478C61.5829 23.7811 61.0329 23.4728 60.5662 23.1228C60.1162 22.7561 59.7662 22.3144 59.5162 21.7978C59.2662 21.2644 59.1412 20.6061 59.1412 19.8228C59.1412 18.7394 59.3579 17.8644 59.7912 17.1978C60.2412 16.5144 60.7995 15.9894 61.4662 15.6228C62.1329 15.2394 62.8579 14.9894 63.6412 14.8728C64.4412 14.7394 65.1829 14.6728 65.8662 14.6728C66.7329 14.6728 67.5495 14.7394 68.3162 14.8728C69.0995 15.0061 69.7829 15.1394 70.3662 15.2728V18.1728C69.5662 17.9394 68.7412 17.7478 67.8912 17.5978C67.0412 17.4478 66.2662 17.3728 65.5662 17.3728C64.3662 17.3728 63.4912 17.5894 62.9412 18.0228C62.3912 18.4394 62.1162 18.9478 62.1162 19.5478C62.1162 19.9978 62.2412 20.3728 62.4912 20.6728C62.7579 20.9728 63.0745 21.2311 63.4412 21.4478C63.8245 21.6644 64.2245 21.8394 64.6412 21.9728C65.0745 22.0894 65.4662 22.1978 65.8162 22.2978C66.4162 22.4644 67.0162 22.6728 67.6162 22.9228C68.2162 23.1561 68.7579 23.4728 69.2412 23.8728C69.7412 24.2728 70.1412 24.7728 70.4412 25.3728C70.7412 25.9561 70.8912 26.6811 70.8912 27.5478C70.8912 28.4144 70.7329 29.1728 70.4162 29.8228C70.1162 30.4728 69.6829 31.0144 69.1162 31.4478C68.5662 31.8811 67.9079 32.2061 67.1412 32.4228C66.3745 32.6394 65.5329 32.7478 64.6162 32.7478C63.8162 32.7478 62.9162 32.6644 61.9162 32.4978C60.9329 32.3311 59.9662 32.0728 59.0162 31.7228L58.9162 28.6478C59.2162 28.7978 59.5912 28.9478 60.0412 29.0978C60.4912 29.2311 60.9745 29.3644 61.4912 29.4978C62.0245 29.6144 62.5579 29.7144 63.0912 29.7978C63.6412 29.8644 64.1579 29.8978 64.6412 29.8978Z" fill="white"/>
</svg>
